# xmcd
#
# Track frame offsets:
#	150
#	34633
#	55230
#	79458
#	97563
#	111540
#	127868
#	133678
#	144418
#	162010
#	170023
#	188595
#	202258
#	212650
#	225815
#
# Disc length: 3211 seconds
#
# Revision: 1
# Processed by: cddbd v1.5.1PL0 Copyright (c) Steve Scherf et al.
# Submitted via: CDex 1.50Beta5
#
DISCID=c50c890f
DTITLE=Various Artist - 卒業式の音楽
DYEAR=1900
DGENRE=
TTITLE0=雅楽「越天楽」
TTITLE1=「春」第3楽章
TTITLE2=「秋」第1楽章
TTITLE3=主よ、人の望みの喜びよ
TTITLE4=ほたるの光
TTITLE5=別れのワルツ
TTITLE6=君が代
TTITLE7=ほたるの光
TTITLE8=仰げば尊し
TTITLE9=ともだちはいいな
TTITLE10=贈る言葉
TTITLE11=はばたけ鳥
TTITLE12=きょうの日はさようなら
TTITLE13=別れの歌
TTITLE14=巣立ちの歌
EXTD=
EXTT0=
EXTT1=
EXTT2=
EXTT3=
EXTT4=
EXTT5=
EXTT6=
EXTT7=
EXTT8=
EXTT9=
EXTT10=
EXTT11=
EXTT12=
EXTT13=
EXTT14=
PLAYORDER=
